<svg width="162" height="100" viewBox="0 0 162 100" fill="none" xmlns="http://www.w3.org/2000/svg">
<rect x="127.109" y="21.9705" width="56.6761" height="19.0426" rx="9.52129" transform="rotate(90 127.109 21.9705)" fill="#BFBFBF"/>
<rect x="127.109" y="21.9705" width="56.6761" height="19.0426" rx="9.52129" transform="rotate(90 127.109 21.9705)" stroke="black"/>
<path d="M140.439 62.1068C140.439 67.6296 135.962 72.1067 130.439 72.1068L128.061 72.1067L128.061 28.5101L130.439 28.5101C135.962 28.5101 140.439 32.9872 140.439 38.5101L140.439 62.1068Z" fill="#BFBFBF"/>
<path d="M140.439 62.1068C140.439 67.6296 135.962 72.1067 130.439 72.1068L128.061 72.1067L128.061 28.5101L130.439 28.5101C135.962 28.5101 140.439 32.9872 140.439 38.5101L140.439 62.1068Z" stroke="black"/>
<path d="M149.96 50.309C149.96 53.9205 147.032 56.8481 143.42 56.8481L141.391 56.8481L141.391 43.769L143.42 43.769C147.032 43.769 149.96 46.6973 149.96 50.309Z" fill="#BFBFBF"/>
<path d="M149.96 50.309C149.96 53.9205 147.032 56.8481 143.42 56.8481L141.391 56.8481L141.391 43.769L143.42 43.769C147.032 43.769 149.96 46.6973 149.96 50.309Z" stroke="black"/>
<path d="M73.4918 27.8662C91.8475 20.4511 109.663 16.3229 123.606 15.6188C130.583 15.2665 136.532 15.7746 141.076 17.118C145.626 18.4635 148.624 20.5988 149.977 23.409C151.331 26.2193 151.032 29.6861 149.049 33.6709C147.069 37.6498 143.467 42.016 138.48 46.4968C128.511 55.4524 113.17 64.718 94.8144 72.1332C76.4585 79.5484 58.6426 83.6768 44.699 84.3809C37.7226 84.7332 31.7734 84.2252 27.2295 82.8817C22.679 81.5362 19.6817 79.401 18.328 76.5907C16.9744 73.7805 17.2734 70.3136 19.2563 66.3289C21.2364 62.3499 24.8379 57.9837 29.8256 53.5029C39.7945 44.5472 55.1358 35.2813 73.4918 27.8662Z" stroke="#FFCC00" stroke-width="2"/>
<rect x="68.0772" y="43.769" width="39.0373" height="13.0791" fill="#BFBFBF"/>
<rect x="68.0772" y="43.769" width="39.0373" height="13.0791" stroke="black"/>
<mask id="mask0_16_26" style="mask-type:alpha" maskUnits="userSpaceOnUse" x="72" y="5" width="26" height="90">
<path d="M72.8378 5.8396H97.5932V43.769H72.8378V5.8396Z" fill="#D9D9D9"/>
<path d="M72.8378 56.8481H97.5932V94.7775H72.8378V56.8481Z" fill="#D9D9D9"/>
<path d="M72.8378 43.769H87.1198V56.8481H72.8378V43.769Z" fill="#D9D9D9"/>
</mask>
<g mask="url(#mask0_16_26)">
<path d="M75.4882 49.0168C75.5492 37.3982 76.8872 26.9207 78.9808 19.3825C80.0296 15.6064 81.2526 12.624 82.5621 10.611C83.9009 8.55313 85.1589 7.75723 86.2178 7.76189C87.2766 7.76666 88.5253 8.57383 89.8423 10.6431C91.1306 12.6675 92.3232 15.6605 93.3323 19.4457C95.3466 27.002 96.5744 37.4908 96.5134 49.1094C96.4523 60.728 95.1144 71.2054 93.0207 78.7437C91.9719 82.52 90.748 85.5021 89.4385 87.5151C88.0998 89.5729 86.8427 90.3688 85.7838 90.3643C84.7249 90.3596 83.4755 89.5528 82.1583 87.483C80.87 85.4586 79.6784 82.4658 78.6693 78.6805C76.6549 71.1241 75.4272 60.6354 75.4882 49.0168Z" stroke="#FFCC00" stroke-width="2"/>
</g>
<path d="M25.2314 50.309C25.2316 53.9205 28.1599 56.8481 31.7714 56.8481L33.8007 56.8481L33.8007 43.769L31.7714 43.769C28.1597 43.769 25.2314 46.6973 25.2314 50.309Z" fill="#BFBFBF"/>
<path d="M25.2314 50.309C25.2316 53.9205 28.1599 56.8481 31.7714 56.8481L33.8007 56.8481L33.8007 43.769L31.7714 43.769C28.1597 43.769 25.2314 46.6973 25.2314 50.309Z" stroke="black"/>
<path d="M34.7527 62.1068C34.7527 67.6296 39.2298 72.1068 44.7527 72.1068L47.1306 72.1067L47.1306 28.5101L44.7527 28.5101C39.2298 28.5101 34.7527 32.9872 34.7527 38.5101L34.7527 62.1068Z" fill="#BFBFBF"/>
<path d="M34.7527 62.1068C34.7527 67.6296 39.2298 72.1068 44.7527 72.1068L47.1306 72.1067L47.1306 28.5101L44.7527 28.5101C39.2298 28.5101 34.7527 32.9872 34.7527 38.5101L34.7527 62.1068Z" stroke="black"/>
<rect x="67.1251" y="21.9705" width="56.6761" height="19.0426" rx="9.52129" transform="rotate(90 67.1251 21.9705)" fill="#BFBFBF"/>
<rect x="67.1251" y="21.9705" width="56.6761" height="19.0426" rx="9.52129" transform="rotate(90 67.1251 21.9705)" stroke="black"/>
<mask id="mask1_16_26" style="mask-type:alpha" maskUnits="userSpaceOnUse" x="0" y="0" width="162" height="97">
<path d="M0 0.171997H108.067V96.0854H0V0.171997Z" fill="#D9D9D9"/>
<path d="M108.067 78.6466H161.862V96.0854H108.067V78.6466Z" fill="#D9D9D9"/>
<path d="M141.391 56.8481H159.005V78.6466H141.391V56.8481Z" fill="#D9D9D9"/>
<path d="M127.109 38.5374H128.061V45.0769H127.109V38.5374Z" fill="#D9D9D9"/>
<path d="M140.439 47.2568H141.391V53.7963H140.439V47.2568Z" fill="#D9D9D9"/>
</mask>
<g mask="url(#mask1_16_26)">
<path fill-rule="evenodd" clip-rule="evenodd" d="M22.886 32.1863C20.9007 28.1968 20.5805 24.6865 21.9639 21.8146C23.3472 18.9428 26.394 16.7926 30.9498 15.4455C35.5045 14.0987 41.4603 13.5911 48.4371 13.9434C62.3834 14.6476 80.1999 18.7762 98.5557 26.1914C116.911 33.6065 132.253 42.8727 142.224 51.8301C147.212 56.3112 150.818 60.6814 152.803 64.67C154.788 68.6595 155.109 72.1698 153.725 75.0417C152.342 77.9135 149.295 80.0637 144.739 81.4108C140.185 82.7576 134.229 83.2652 127.252 82.9129C113.306 82.2087 95.4893 78.0801 77.1335 70.665C58.7777 63.2498 43.4359 53.9837 33.465 45.0262C28.477 40.5451 24.8708 36.1749 22.886 32.1863ZM76.7492 71.4627C39.8832 56.5701 14.9649 34.1844 21.0927 21.4627C27.2205 8.74108 62.0739 10.501 98.94 25.3936C135.806 40.2862 160.724 62.6719 154.596 75.3936C148.469 88.1152 113.615 86.3553 76.7492 71.4627Z" fill="#FFCC00"/>
</g>
</svg>
